# xmcd
#
# Track frame offsets:
#	150
#	11861
#	24744
#	38703
#	49241
#	61550
#	74176
#	93560
#	105476
#	118012
#	132129
#	144843
#	161207
#	183502
#	200811
#
# Disc length: 2832 seconds
#
# Revision: 2
# Processed by: cddbd v1.5.1PL0 Copyright (c) Steve Scherf et al.
# Submitted via: audiograbber 1.83.01
#
DISCID=db0b0e0f
DTITLE=Various Artist - Damn Right We Got The Blues [CD1]
DYEAR=2001
DGENRE=Blues
TTITLE0=B B King - Paying The Cost To Be The Boss
TTITLE1=Blind Faith - Sleeping In The Ground
TTITLE2=Bo Diddley - Before You Accuse Me
TTITLE3=Etta James - Tell Mama
TTITLE4=Louis Jordan - Choo Choo Ch' Boogie
TTITLE5=Muddy Waters - Can't Get No Grindin'
TTITLE6=Chuck Berry - Reelin' and Rockin
TTITLE7=Fontella Bass and Bobby McClure - You're Gonna Miss Me
TTITLE8=Jimmy McCrackin - The Walk
TTITLE9=Little Milton - If Walls Could Talk
TTITLE10=Jackie Brenston and His Delta Cats - Rocket 88
TTITLE11=John Lee Hooker - Deep Blue Sea
TTITLE12=The Allman Brothers Band - One Way Out
TTITLE13=Freddie King - Sugar Sweet
TTITLE14=Sonny Boy Williamson - Don't Start Me To Talkin'
EXTD=ID3G: 0
EXTT0=
EXTT1=
EXTT2=
EXTT3=
EXTT4=
EXTT5=
EXTT6=
EXTT7=
EXTT8=
EXTT9=
EXTT10=
EXTT11=
EXTT12=
EXTT13=
EXTT14=
PLAYORDER=
